<?xml version="1.0" encoding="UTF-8" standalone="no"?>
<svg
   width="112"
   height="40"
   viewBox="0 0 112 40"
   fill="none"
   version="1.1"
   id="svg22"
   sodipodi:docname="66b3d8951b36f336b2b46c81_Vectors-Wrapper.svg"
   inkscape:version="1.4 (86a8ad7, 2024-10-11)"
   xmlns:inkscape="http://www.inkscape.org/namespaces/inkscape"
   xmlns:sodipodi="http://sodipodi.sourceforge.net/DTD/sodipodi-0.dtd"
   xmlns="http://www.w3.org/2000/svg"
   xmlns:svg="http://www.w3.org/2000/svg">
  <sodipodi:namedview
     id="namedview22"
     pagecolor="#ffffff"
     bordercolor="#000000"
     borderopacity="0.25"
     inkscape:showpageshadow="2"
     inkscape:pageopacity="0.0"
     inkscape:pagecheckerboard="true"
     inkscape:deskcolor="#d1d1d1"
     inkscape:zoom="7.9285714"
     inkscape:cx="56.441441"
     inkscape:cy="10.153153"
     inkscape:window-width="1920"
     inkscape:window-height="1017"
     inkscape:window-x="-8"
     inkscape:window-y="-8"
     inkscape:window-maximized="1"
     inkscape:current-layer="g8" />
  <g
     clip-path="url(#clip0_709_7613)"
     id="g8">
    <g
       clip-path="url(#clip1_709_7613)"
       id="g2">
      <path
         fill-rule="evenodd"
         clip-rule="evenodd"
         d="M9.88228 13.3201C1.8216 11.058 0.171875 4.26338 0.171875 0.586914H4.67851C4.67851 2.12104 5.05525 4.2278 6.44002 6.00963C9.87668 2.65444 14.5761 0.586914 19.7584 0.586914C25.0385 0.586914 29.8172 2.73317 33.2699 6.20086C34.7806 4.38032 35.185 2.17632 35.185 0.586914H39.6916C39.6916 4.26334 38.042 11.058 29.9812 13.3201C27.6286 13.9804 25.6818 15.4689 24.3139 17.1255C22.8739 18.8695 22.3584 20.4388 22.3584 21.0401H22.0117H17.8518H17.5051C17.5051 20.4388 16.9896 18.8695 15.5496 17.1255C14.1817 15.4689 12.2348 13.9804 9.88228 13.3201ZM19.9317 15.4623C20.2138 15.0491 20.5176 14.6451 20.8388 14.2561C22.663 12.0469 25.3497 9.93921 28.7635 8.98114L28.7635 8.98113C28.9942 8.91639 29.217 8.84641 29.4321 8.77156C26.8601 6.48354 23.4716 5.09355 19.7584 5.09355C16.0936 5.09355 12.745 6.44758 10.1856 8.68266C10.4756 8.79157 10.7802 8.89138 11.1 8.98114L11.1 8.98114C14.5138 9.93921 17.2005 12.0469 19.0247 14.2561C19.3459 14.6451 19.6497 15.0491 19.9317 15.4623ZM19.7584 34.2133C27.7996 34.2133 34.3183 27.6947 34.3183 19.6534C34.3183 18.3084 34.1359 17.0059 33.7945 15.7694C35.3514 15.0028 36.6125 14.0499 37.63 12.9946C38.4027 15.0676 38.8249 17.3112 38.8249 19.6534C38.8249 30.1836 30.2886 38.72 19.7584 38.72C9.22824 38.72 0.691871 30.1836 0.691871 19.6534C0.691871 17.2934 1.12065 15.0336 1.90454 12.9475C2.92255 13.9974 4.18306 14.9475 5.73719 15.7159C5.38619 16.9683 5.19851 18.289 5.19851 19.6534C5.19851 27.6947 11.7172 34.2133 19.7584 34.2133Z"
         fill="url(#paint0_linear_709_7613)"
         id="path1" />
      <path
         d="M19.925 21.3701L20.4424 22.7682C21.2121 24.8484 22.8522 26.4885 24.9324 27.2583L26.3305 27.7756L24.9324 28.293C22.8522 29.0627 21.2121 30.7027 20.4424 32.783L19.925 34.1811L19.4077 32.783C18.6379 30.7027 16.9978 29.0627 14.9176 28.293L13.5195 27.7756L14.9176 27.2583C16.9978 26.4885 18.6379 24.8484 19.4077 22.7682L19.925 21.3701Z"
         fill="white"
         id="path2" />
    </g>
    <text
       xml:space="preserve"
       style="font-size:22.487px;font-family:Corbel;-inkscape-font-specification:Corbel;text-align:start;writing-mode:lr-tb;direction:ltr;text-anchor:start;fill:#ffffff;stroke-width:0.936957"
       x="45.629837"
       y="27.66247"
       id="text22"
       transform="scale(0.99791905,1.0020853)"><tspan
         sodipodi:role="line"
         id="tspan22"
         x="45.629837"
         y="27.66247"
         style="stroke-width:0.936957">EdgeAI</tspan></text>
  </g>
  <defs
     id="defs22">
    <linearGradient
       id="paint0_linear_709_7613"
       x1="19.9317"
       y1="0.586914"
       x2="19.9317"
       y2="38.72"
       gradientUnits="userSpaceOnUse">
      <stop
         stop-color="#C160FF"
         id="stop8" />
      <stop
         offset="1"
         stop-color="#8941CE"
         id="stop9" />
    </linearGradient>
    <linearGradient
       id="paint1_linear_709_7613"
       x1="77.944"
       y1="8.44438"
       x2="81.0103"
       y2="32.9045"
       gradientUnits="userSpaceOnUse">
      <stop
         stop-color="white"
         id="stop10" />
      <stop
         offset="1"
         stop-color="#7D7DA3"
         id="stop11" />
    </linearGradient>
    <linearGradient
       id="paint2_linear_709_7613"
       x1="77.9441"
       y1="8.44438"
       x2="81.0104"
       y2="32.9045"
       gradientUnits="userSpaceOnUse">
      <stop
         stop-color="white"
         id="stop12" />
      <stop
         offset="1"
         stop-color="#7D7DA3"
         id="stop13" />
    </linearGradient>
    <linearGradient
       id="paint3_linear_709_7613"
       x1="77.9438"
       y1="8.44419"
       x2="81.0102"
       y2="32.9043"
       gradientUnits="userSpaceOnUse">
      <stop
         stop-color="white"
         id="stop14" />
      <stop
         offset="1"
         stop-color="#7D7DA3"
         id="stop15" />
    </linearGradient>
    <linearGradient
       id="paint4_linear_709_7613"
       x1="77.9441"
       y1="8.444"
       x2="81.0104"
       y2="32.9042"
       gradientUnits="userSpaceOnUse">
      <stop
         stop-color="white"
         id="stop16" />
      <stop
         offset="1"
         stop-color="#7D7DA3"
         id="stop17" />
    </linearGradient>
    <linearGradient
       id="paint5_linear_709_7613"
       x1="77.9419"
       y1="8.44419"
       x2="81.0082"
       y2="32.9043"
       gradientUnits="userSpaceOnUse">
      <stop
         stop-color="white"
         id="stop18" />
      <stop
         offset="1"
         stop-color="#7D7DA3"
         id="stop19" />
    </linearGradient>
    <linearGradient
       id="paint6_linear_709_7613"
       x1="77.9436"
       y1="8.44438"
       x2="81.0099"
       y2="32.9045"
       gradientUnits="userSpaceOnUse">
      <stop
         stop-color="white"
         id="stop20" />
      <stop
         offset="1"
         stop-color="#7D7DA3"
         id="stop21" />
    </linearGradient>
    <clipPath
       id="clip0_709_7613">
      <rect
         width="112"
         height="38.8264"
         fill="white"
         transform="translate(0 0.586914)"
         id="rect21" />
    </clipPath>
    <clipPath
       id="clip1_709_7613">
      <rect
         width="39.8664"
         height="38.8264"
         fill="white"
         transform="translate(0 0.586914)"
         id="rect22" />
    </clipPath>
  </defs>
</svg>
